#!OML:ASF H:\Not Pregnant\Project 1\Capture day 1\Session 1\non-pregnant.ASF
:FULLY-SPECIFIED
:DEGREES
1442
root -3.84579 16.4209 -7.81185 -355.587 -86.5918 367.297
lowerback 2.62679 2.49546 7.48449
upperback -8.8106 3.64858 -1.3301
thorax -10.3758 0.986622 -6.01016
lowerneck 14.6997 -9.39099 -33.591
upperneck -6.1521 -19.0534 40.5466
head 4.00679 -11.5167 20.4342
rclavicle 8.87077e-015 1.78906e-014
rhumerus -37.7303 -8.19627 -73.0082
rradius 33.491
rwrist 18.1953
rhand -11.1536 3.1214
rfingers 7.12502
rthumb 14.8725 -26.3248
lclavicle 8.87077e-015 1.78906e-014
lhumerus -44.99 5.38868 78.769
lradius 34.5083
lwrist 35.1357
lhand -22.7979 -18.8725
lfingers 7.12502
lthumb 3.63827 11.0762
rfemur -24.6042 2.92273 16.3086
rtibia 36.3904
rfoot -22.8046 -1.00805
rtoes -20.9607
lfemur -30.7028 -6.21921 -5.05243
ltibia 50.4608
lfoot -11.2013 11.1573
ltoes -16.4364
1443
root -3.8532 16.4148 -7.75571 -356.619 -86.6999 368.203
lowerback 2.66276 2.49134 7.35776
upperback -8.77072 3.63152 -1.38847
thorax -10.3561 0.989264 -6.00166
lowerneck 14.6902 -9.37726 -33.5756
upperneck -6.07848 -19.0586 40.5824
head 4.0347 -11.5249 20.4542
rclavicle 1.43622e-014 5.1684e-015
rhumerus -37.6328 -8.27137 -73.1133
rradius 33.2849
rwrist 18.2258
rhand -11.2315 3.06842
rfingers 7.12502
rthumb 14.7974 -26.3833
lclavicle 1.43622e-014 5.1684e-015
lhumerus -45.0245 5.65197 78.5813
lradius 34.9563
lwrist 36.3368
lhand -22.6158 -18.4955
lfingers 7.12502
lthumb 3.81416 11.4501
rfemur -24.4291 2.8186 16.053
rtibia 36.374
rfoot -22.913 -0.8916
rtoes -21.1146
lfemur -30.3143 -6.19459 -4.09655
ltibia 49.8666
lfoot -9.94781 11.4077
ltoes -15.6436
1444
root -3.86189 16.4077 -7.6985 -357.695 -86.8 369.161
lowerback 2.67195 2.48415 7.21492
upperback -8.73427 3.6064 -1.44619
thorax -10.326 0.989575 -5.981
lowerneck 14.6786 -9.3629 -33.5562
upperneck -5.99401 -19.0651 40.6176
head 4.06575 -11.5338 20.4729
rclavicle 6.98231e-015 -1.68967e-014
rhumerus -37.5415 -8.35021 -73.2165
rradius 33.0447
rwrist 18.2523
rhand -11.3039 2.99631
rfingers 7.12502
rthumb 14.7277 -26.4605
lclavicle 6.98231e-015 -1.68967e-014
lhumerus -45.0482 5.94114 78.3676
lradius 35.3276
lwrist 37.2326
lhand -22.2205 -17.9498
lfingers 7.12502
lthumb 4.19589 11.9886
rfemur -24.2679 2.70996 15.7935
rtibia 36.3785
rfoot -23.0337 -0.778471
rtoes -21.2579
lfemur -29.9072 -6.16545 -3.13975
ltibia 49.1988
lfoot -8.6546 11.5799
ltoes -14.6861
1445
root -3.87167 16.3991 -7.64047 -358.734 -86.8948 370.084
lowerback 2.66457 2.47167 7.05477
upperback -8.70108 3.57161 -1.49785
thorax -10.2922 0.986798 -5.9421
lowerneck 14.6568 -9.34672 -33.5302
upperneck -5.89194 -19.0677 40.643
head 4.09903 -11.5391 20.4849
rclavicle -3.27995e-014 0
rhumerus -37.4524 -8.42538 -73.3164
rradius 32.7657
rwrist 18.289
rhand -11.3717 2.91181
rfingers 7.12502
rthumb 14.6624 -26.5498
lclavicle -3.27995e-014 0
lhumerus -45.0763 6.17458 78.2098
lradius 35.6747
lwrist 38.1145
lhand -21.8185 -17.3649
lfingers 7.12502
lthumb 4.58407 12.5655
rfemur -24.1182 2.60835 15.5349
rtibia 36.4083
rfoot -23.1644 -0.67533
rtoes -21.3902
lfemur -29.4754 -6.14395 -2.18245
ltibia 48.4604
lfoot -7.33705 11.6949
ltoes -13.5708
1446
root -3.88252 16.3891 -7.58146 -359.861 -86.9908 371.098
lowerback 2.64548 2.45778 6.86853
upperback -8.67274 3.53238 -1.54137
thorax -10.259 0.984023 -5.87864
lowerneck 14.6294 -9.33086 -33.5036
upperneck -5.77852 -19.0703 40.6567
head 4.13411 -11.5425 20.4894
rclavicle -3.23522e-014 -1.51076e-014
rhumerus -37.3689 -8.4873 -73.4053
rradius 32.4501
rwrist 18.3505
rhand -11.4412 2.82597
rfingers 7.12502
rthumb 14.5954 -26.6405
lclavicle -3.23522e-014 -1.51076e-014
lhumerus -45.1126 6.34695 78.1183
lradius 35.9946
lwrist 38.9462
lhand -21.4145 -16.7751
lfingers 7.12502
lthumb 4.97416 13.1465
rfemur -23.9833 2.51234 15.2691
rtibia 36.467
rfoot -23.3057 -0.576168
rtoes -21.5195
lfemur -29.017 -6.10905 -1.23982
ltibia 47.6569
lfoot -6.02273 11.7509
ltoes -12.1758
1447
root -3.89438 16.3777 -7.52179 -361.265 -87.104 372.384
lowerback 2.62185 2.45501 6.64449
upperback -8.64347 3.50518 -1.58162
thorax -10.2216 0.990567 -5.79114
lowerneck 14.6078 -9.31934 -33.4747
upperneck -5.67086 -19.0789 40.668
head 4.16849 -11.5492 20.4906
rclavicle -2.40778e-014 -2.72335e-014
rhumerus -37.2935 -8.57028 -73.4686
rradius 32.098
rwrist 18.4623
rhand -11.5094 2.74976
rfingers 7.12502
rthumb 14.5297 -26.7214
lclavicle -2.40778e-014 -2.72335e-014
lhumerus -45.145 6.44444 78.1031
lradius 36.2761
lwrist 39.6746
lhand -21.0293 -16.2266
lfingers 7.12502
lthumb 5.34603 13.6859
rfemur -23.8595 2.43729 14.9876
rtibia 36.5567
rfoot -23.4569 -0.480273
rtoes -21.6617
lfemur -28.5153 -6.03927 -0.328862
ltibia 46.7915
lfoot -4.74029 11.7512
ltoes -10.5503
1448
root -3.90684 16.3646 -7.46141 -362.898 -87.2344 373.889
lowerback 2.6063 2.45997 6.39598
upperback -8.61333 3.48755 -1.61889
thorax -10.1879 1.00371 -5.68797
lowerneck 14.5922 -9.30728 -33.4469
upperneck -5.56861 -19.0881 40.682
head 4.2012 -11.557 20.4942
rclavicle -2.37548e-014 -2.5842e-015
rhumerus -37.2259 -8.68777 -73.5087
rradius 31.7084
rwrist 18.6471
rhand -11.5776 2.68576
rfingers 7.12502
rthumb 14.464 -26.7902
lclavicle -2.37548e-014 -2.5842e-015
lhumerus -45.1766 6.45223 78.162
lradius 36.523
lwrist 40.3068
lhand -20.6818 -15.7476
lfingers 7.12502
lthumb 5.68152 14.1562
rfemur -23.7418 2.3896 14.6965
rtibia 36.6771
rfoot -23.6152 -0.390432
rtoes -21.8265
lfemur -27.9651 -5.96182 0.554919
ltibia 45.8686
lfoot -3.51131 11.7176
ltoes -8.77694
1449
root -3.91983 16.3502 -7.39999 -365.051 -87.3752 375.903
lowerback 2.59626 2.47356 6.11102
upperback -8.58054 3.47955 -1.65318
thorax -10.1549 1.02468 -5.56221
lowerneck 14.5827 -9.29686 -33.4231
upperneck -5.47618 -19.0998 40.6963
head 4.2318 -11.5663 20.4984
rclavicle 2.51587e-014 -7.35503e-015
rhumerus -37.1631 -8.79916 -73.526
rradius 31.2885
rwrist 18.8686
rhand -11.6208 2.64183
rfingers 7.12502
rthumb 14.4224 -26.8371
lclavicle 2.51587e-014 -7.35503e-015
lhumerus -45.2048 6.40093 78.2973
lradius 36.7235
lwrist 40.7708
lhand -20.3727 -15.3602
lfingers 7.12502
lthumb 5.97997 14.5354
rfemur -23.6292 2.35933 14.3821
rtibia 36.8258
rfoot -23.7827 -0.304642
rtoes -22.0204
lfemur -27.3703 -5.87702 1.3956
ltibia 44.8908
lfoot -2.35945 11.6356
ltoes -6.91627
1450
root -3.93306 16.3345 -7.33716 -367.54 -87.5065 378.245
lowerback 2.59133 2.48273 5.81285
upperback -8.54743 3.46487 -1.68885
thorax -10.1262 1.04302 -5.43019
lowerneck 14.5773 -9.28089 -33.3957
upperneck -5.38903 -19.1025 40.7123
head 4.25625 -11.5719 20.506
rclavicle -2.57178e-015 3.37934e-015
rhumerus -37.1033 -8.93128 -73.5312
rradius 30.8344
rwrist 19.169
rhand -11.6182 2.63449
rfingers 7.12502
rthumb 14.4249 -26.8442
lclavicle -2.57178e-015 3.37934e-015
lhumerus -45.2356 6.28085 78.4897
lradius 36.8856
lwrist 41.0937
lhand -20.1318 -15.0908
lfingers 7.12502
lthumb 6.21261 14.7981
rfemur -23.518 2.33451 14.054
rtibia 36.9972
rfoot -23.9552 -0.236151
rtoes -22.2515
lfemur -26.7471 -5.81924 2.20417
ltibia 43.8621
lfoot -1.28524 11.5034
ltoes -5.13599
1451
root -3.94652 16.3175 -7.2722 -370.25 -87.6109 380.802
lowerback 2.58904 2.48242 5.51741
upperback -8.51393 3.43787 -1.72435
thorax -10.1005 1.05483 -5.29847
lowerneck 14.5631 -9.26199 -33.3741
upperneck -5.29736 -19.0996 40.725
head 4.28126 -11.5734 20.5137
rclavicle 1.27346e-014 1.53064e-014
rhumerus -37.0437 -9.04521 -73.5317
rradius 30.3504
rwrist 19.5029
rhand -11.5904 2.64233
rfingers 7.12502
rthumb 14.4517 -26.8345
lclavicle 1.27346e-014 1.53064e-014
lhumerus -45.2707 6.09846 78.7487
lradius 37.0105
lwrist 41.2802
lhand -19.944 -14.9348
lfingers 7.12502
lthumb 6.39383 14.9487
rfemur -23.4028 2.30039 13.7116
rtibia 37.1834
rfoot -24.1324 -0.183097
rtoes -22.5078
lfemur -26.1102 -5.81679 2.98063
ltibia 42.7849
lfoot -0.273141 11.3096
ltoes -3.58285
